<svg xmlns="http://www.w3.org/2000/svg" width="32.121" height="29.12" viewBox="0 0 32.121 29.12">
  <path id="bx-wifi-off" d="M1.939,12.592,4.06,14.713a19.419,19.419,0,0,1,2.433-2.038L4.35,10.531a22.468,22.468,0,0,0-2.41,2.061Zm7.772-5L5.56,3.44,3.44,5.56l27,27,2.121-2.121-7.518-7.518,1.464-1.462a11.79,11.79,0,0,0-6.149-3.222L16.941,14.82a14.928,14.928,0,0,1,11.594,4.24l2.121-2.121A18.02,18.02,0,0,0,14.324,12.2L12.036,9.915A20.049,20.049,0,0,1,18,9a19.557,19.557,0,0,1,13.939,5.713l2.121-2.121A22.529,22.529,0,0,0,18,6,22.8,22.8,0,0,0,9.711,7.59ZM5.344,16.939,7.465,19.06a14.345,14.345,0,0,1,3.087-2.326L8.364,14.545a17.208,17.208,0,0,0-3.019,2.394ZM9.493,21.46l2.121,2.121a8.749,8.749,0,0,1,3.643-2.142L12.922,19.1a11.64,11.64,0,0,0-3.429,2.357Zm11.49,5.7-3.15-3.15a2.994,2.994,0,1,0,3.15,3.15Z" transform="translate(-1.939 -3.44)" fill="#ff3030"/>
</svg>
