<svg id="Group_213" data-name="Group 213" xmlns="http://www.w3.org/2000/svg" width="63.36" height="62.89" viewBox="0 0 63.36 62.89">
  <g id="Group_211" data-name="Group 211">
    <path id="Path_386" data-name="Path 386" d="M475.034,597.954l-38.413-38.413,14.466-14.466L489.5,583.488l-10.8,3.667Z" transform="translate(-426.14 -535.064)" fill="#ffda4a"/>
    <path id="Path_387" data-name="Path 387" d="M458.724,554.922l31.354,31.354,1.893-.644-31.979-31.979Z" transform="translate(-430.241 -536.656)" fill="#219abc"/>
    <path id="Path_388" data-name="Path 388" d="M446.47,567.176l31.354,31.354-.642,1.891L445.2,568.442Z" transform="translate(-427.733 -539.165)" fill="#219abc"/>
    <g id="Group_210" data-name="Group 210">
      <path id="Path_389" data-name="Path 389" d="M475.61,563.8a16.85,16.85,0,0,0-16.848-16.848c-.029,0-.055,0-.082,0v2.219c.027,0,.053-.006.082-.006a14.629,14.629,0,1,1,0,29.259c-.028,0-.055-.006-.082-.006v2.217c.027,0,.055.007.082.007A16.848,16.848,0,0,0,475.61,563.8Z" transform="translate(-430.233 -535.412)" fill="#219abc"/>
      <path id="Path_390" data-name="Path 390" d="M440.31,563.8a14.627,14.627,0,0,1,14.55-14.625v-2.219a16.842,16.842,0,0,0,0,33.683v-2.217A14.626,14.626,0,0,1,440.31,563.8Z" transform="translate(-426.414 -535.413)" fill="#4daec9"/>
      <path id="Path_391" data-name="Path 391" d="M433.56,561.177a18.714,18.714,0,0,1,18.64-18.713v-9.635l-4.6,6.829-7.008-4.41-1.427,8.153-8.2-1.179,2.005,8.031-7.965,2.255,5.1,6.522-6.355,5.3,7.308,3.882-3.653,7.429,8.256.572-.315,8.271,7.778-2.835,3.079,7.687,5.946-5.753.047.046v-3.738A18.716,18.716,0,0,1,433.56,561.177Z" transform="translate(-423.753 -532.792)" fill="#ff9c7c"/>
      <path id="Path_392" data-name="Path 392" d="M479.771,568.261l7.32-3.863-6.342-5.317,5.116-6.508-7.958-2.279,2.03-8.023-8.2,1.156-1.413-8.155-7.017,4.388-4.6-6.876-.027.037v9.635c.027,0,.053-.007.082-.007a18.719,18.719,0,0,1,0,37.438c-.028,0-.055,0-.082,0v3.738l5.889,5.722,3.1-7.676,7.769,2.856-.292-8.271,8.257-.555Z" transform="translate(-430.233 -532.784)" fill="#ff835b"/>
      <path id="Path_393" data-name="Path 393" d="M435.794,563.372a18.716,18.716,0,0,0,18.64,18.714v-1.874a16.842,16.842,0,0,1,0-33.683v-1.87A18.714,18.714,0,0,0,435.794,563.372Z" transform="translate(-425.987 -534.987)" fill="#ffe16e"/>
      <path id="Path_394" data-name="Path 394" d="M458.762,546.523a16.847,16.847,0,1,1,0,33.694c-.028,0-.055,0-.082-.007v1.874c.027,0,.055,0,.082,0a18.719,18.719,0,0,0,0-37.438c-.029,0-.055.007-.082.007v1.87C458.707,546.527,458.733,546.523,458.762,546.523Z" transform="translate(-430.233 -534.986)" fill="#ffda4a"/>
      <path id="Path_395" data-name="Path 395" d="M458.762,578.931a14.629,14.629,0,1,0,0-29.259c-.029,0-.055,0-.082.006v29.247C458.707,578.925,458.735,578.931,458.762,578.931Z" transform="translate(-430.233 -535.917)" fill="#ff835b"/>
      <path id="Path_396" data-name="Path 396" d="M440.815,564.3a14.626,14.626,0,0,0,14.55,14.623V549.679A14.627,14.627,0,0,0,440.815,564.3Z" transform="translate(-426.919 -535.919)" fill="#ff9c7c"/>
    </g>
  </g>
  <g id="Group_212" data-name="Group 212" transform="translate(20.116 17.147)">
    <path id="Path_397" data-name="Path 397" d="M464.156,559.74a5.128,5.128,0,0,1-2.791,4.8v.127c2.122.757,3.348,2.714,3.348,5.367-.14,3.473-2.567,6.282-8.089,6.282-5.606,0-8.172-2.809-8.172-6.25V569.4h4.909c0,1.42.669,2.588,2.9,2.588a2.581,2.581,0,0,0,2.9-2.9c0-1.548-.864-2.273-1.952-2.273h-2.035v-3.883h1.588c1.089,0,1.952-.727,1.952-2.272a2.38,2.38,0,0,0-2.454-2.495,2.331,2.331,0,0,0-2.537,2.4h-4.659v-.789c0-3.252,2.761-5.935,7.67-5.935C461.477,553.837,464.156,556.52,464.156,559.74Z" transform="translate(-448.451 -553.837)" fill="#ffda4a"/>
  </g>
</svg>
