<svg id="Group_217" data-name="Group 217" xmlns="http://www.w3.org/2000/svg" width="63.36" height="63.974" viewBox="0 0 63.36 63.974">
  <g id="Group_215" data-name="Group 215">
    <path id="Path_398" data-name="Path 398" d="M475.034,436.64l-38.413-38.413,14.466-14.466L489.5,422.174l-10.8,3.667Z" transform="translate(-426.14 -372.666)" fill="#219abc"/>
    <path id="Path_399" data-name="Path 399" d="M458.724,393.608l31.354,31.354,1.893-.644L459.992,392.34Z" transform="translate(-430.241 -374.258)" fill="#ffe16e"/>
    <path id="Path_400" data-name="Path 400" d="M446.47,405.862l31.354,31.354-.642,1.891L445.2,407.129Z" transform="translate(-427.733 -376.767)" fill="#ffe16e"/>
    <g id="Group_214" data-name="Group 214">
      <path id="Path_401" data-name="Path 401" d="M475.61,401.152A16.85,16.85,0,0,0,458.762,384.3c-.029,0-.055,0-.082,0v2.219c.027,0,.053-.006.082-.006a14.629,14.629,0,1,1,0,29.259c-.028,0-.055-.006-.082-.006v2.217c.027,0,.055.007.082.007A16.848,16.848,0,0,0,475.61,401.152Z" transform="translate(-430.233 -372.767)" fill="#219abc"/>
      <path id="Path_402" data-name="Path 402" d="M440.31,401.153a14.626,14.626,0,0,1,14.55-14.625V384.31a16.842,16.842,0,0,0,0,33.683v-2.217A14.627,14.627,0,0,1,440.31,401.153Z" transform="translate(-426.414 -372.768)" fill="#4daec9"/>
      <path id="Path_403" data-name="Path 403" d="M433.56,398.532a18.714,18.714,0,0,1,18.64-18.713v-9.635l-4.6,6.829-7.008-4.41-1.427,8.153-8.2-1.179,2.005,8.031-7.965,2.255,5.1,6.522-6.355,5.3,7.308,3.882L427.408,413l8.257.572-.316,8.271L443.128,419l3.079,7.687,5.946-5.753.047.046v-3.738A18.716,18.716,0,0,1,433.56,398.532Z" transform="translate(-423.753 -370.147)" fill="#ffe16e"/>
      <path id="Path_404" data-name="Path 404" d="M479.771,405.616l7.32-3.863-6.342-5.317,5.116-6.508-7.958-2.279,2.03-8.023-8.2,1.156-1.413-8.155-7.017,4.388-4.6-6.877-.027.037v9.635c.027,0,.053-.007.082-.007a18.719,18.719,0,0,1,0,37.438c-.028,0-.055,0-.082,0v3.738l5.889,5.722,3.1-7.676,7.769,2.856-.292-8.271,8.256-.555Z" transform="translate(-430.233 -370.139)" fill="#ffda4a"/>
      <path id="Path_405" data-name="Path 405" d="M435.794,400.727a18.716,18.716,0,0,0,18.64,18.714v-1.874a16.842,16.842,0,0,1,0-33.683v-1.87A18.714,18.714,0,0,0,435.794,400.727Z" transform="translate(-425.987 -372.342)" fill="#ffe16e"/>
      <path id="Path_406" data-name="Path 406" d="M458.762,383.878a16.847,16.847,0,1,1,0,33.695c-.028,0-.055,0-.082-.007v1.874c.027,0,.055,0,.082,0a18.719,18.719,0,0,0,0-37.438c-.029,0-.055.007-.082.007v1.87C458.707,383.883,458.733,383.878,458.762,383.878Z" transform="translate(-430.233 -372.341)" fill="#ffda4a"/>
      <path id="Path_407" data-name="Path 407" d="M458.762,416.286a14.629,14.629,0,1,0,0-29.259c-.029,0-.055,0-.082.006V416.28C458.707,416.28,458.735,416.286,458.762,416.286Z" transform="translate(-430.233 -373.272)" fill="#ffda4a"/>
      <path id="Path_408" data-name="Path 408" d="M440.815,401.659a14.627,14.627,0,0,0,14.55,14.623V387.034A14.626,14.626,0,0,0,440.815,401.659Z" transform="translate(-426.919 -373.274)" fill="#ffe16e"/>
    </g>
  </g>
  <g id="Group_216" data-name="Group 216" transform="translate(21.553 17.147)">
    <path id="Path_409" data-name="Path 409" d="M459.832,407.275H464v4.63H450.216v-4.63h4.331v-9.349h-4.331v-3.488a17.382,17.382,0,0,0,7.838-3.246h1.779Z" transform="translate(-450.216 -391.192)" fill="#ff835b"/>
  </g>
</svg>
