<svg id="Group_209" data-name="Group 209" xmlns="http://www.w3.org/2000/svg" width="63.36" height="62.89" viewBox="0 0 63.36 62.89">
  <g id="Group_207" data-name="Group 207">
    <path id="Path_374" data-name="Path 374" d="M475.034,516.138l-38.413-38.413,14.466-14.466L489.5,501.672l-10.8,3.667Z" transform="translate(-426.14 -453.248)" fill="#ff835b"/>
    <path id="Path_375" data-name="Path 375" d="M458.724,473.106l31.354,31.354,1.893-.644-31.979-31.979Z" transform="translate(-430.241 -454.84)" fill="#ffe16e"/>
    <path id="Path_376" data-name="Path 376" d="M446.47,485.36l31.354,31.354-.642,1.891L445.2,486.626Z" transform="translate(-427.733 -457.349)" fill="#ffe16e"/>
    <g id="Group_206" data-name="Group 206">
      <path id="Path_377" data-name="Path 377" d="M475.61,481.981a16.849,16.849,0,0,0-16.848-16.848c-.029,0-.055,0-.082,0v2.219c.027,0,.053-.007.082-.007a14.63,14.63,0,1,1,0,29.26c-.028,0-.055-.006-.082-.006v2.218c.027,0,.055.006.082.006A16.848,16.848,0,0,0,475.61,481.981Z" transform="translate(-430.233 -453.596)" fill="#219abc"/>
      <path id="Path_378" data-name="Path 378" d="M440.31,481.982a14.626,14.626,0,0,1,14.55-14.625v-2.219a16.842,16.842,0,0,0,0,33.684V496.6A14.625,14.625,0,0,1,440.31,481.982Z" transform="translate(-426.414 -453.597)" fill="#4daec9"/>
      <path id="Path_379" data-name="Path 379" d="M433.56,479.361a18.714,18.714,0,0,1,18.64-18.713v-9.636l-4.6,6.829-7.008-4.409-1.427,8.153-8.2-1.179,2.005,8.031-7.965,2.255,5.1,6.522-6.355,5.3,7.308,3.882-3.653,7.428,8.256.572-.315,8.272,7.778-2.835,3.079,7.687,5.946-5.754.047.047v-3.738A18.716,18.716,0,0,1,433.56,479.361Z" transform="translate(-423.753 -450.976)" fill="#4daec9"/>
      <path id="Path_380" data-name="Path 380" d="M479.771,486.445l7.32-3.863-6.342-5.318,5.116-6.508-7.958-2.278,2.03-8.024-8.2,1.157-1.413-8.155-7.017,4.388-4.6-6.877-.027.036v9.636c.027,0,.053-.006.082-.006a18.719,18.719,0,0,1,0,37.438c-.028,0-.055,0-.082,0V501.8l5.889,5.722,3.1-7.676,7.769,2.856-.292-8.271,8.257-.555Z" transform="translate(-430.233 -450.968)" fill="#219abc"/>
      <path id="Path_381" data-name="Path 381" d="M435.794,481.556a18.716,18.716,0,0,0,18.64,18.714V498.4a16.842,16.842,0,0,1,0-33.684v-1.869A18.714,18.714,0,0,0,435.794,481.556Z" transform="translate(-425.987 -453.171)" fill="#ffe16e"/>
      <path id="Path_382" data-name="Path 382" d="M458.762,464.707a16.847,16.847,0,1,1,0,33.694c-.028,0-.055,0-.082-.006v1.874c.027,0,.055,0,.082,0a18.719,18.719,0,0,0,0-37.438c-.029,0-.055.007-.082.007v1.869C458.707,464.711,458.733,464.707,458.762,464.707Z" transform="translate(-430.233 -453.17)" fill="#ffda4a"/>
      <path id="Path_383" data-name="Path 383" d="M458.762,497.115a14.63,14.63,0,1,0,0-29.26c-.029,0-.055,0-.082.007v29.247C458.707,497.108,458.735,497.115,458.762,497.115Z" transform="translate(-430.233 -454.101)" fill="#ffda4a"/>
      <path id="Path_384" data-name="Path 384" d="M440.815,482.488a14.625,14.625,0,0,0,14.55,14.622V467.863A14.626,14.626,0,0,0,440.815,482.488Z" transform="translate(-426.919 -454.103)" fill="#ffe16e"/>
    </g>
  </g>
  <g id="Group_208" data-name="Group 208" transform="translate(20.797 17.147)">
    <path id="Path_385" data-name="Path 385" d="M463.979,478.146c0,4.408-3.948,6.569-7.658,9.587h7.867v5h-14.9v-1.421a7.227,7.227,0,0,1,2.508-5.266c4.078-4.113,7.007-5.77,7.007-7.693a2.043,2.043,0,0,0-2.249-2.161,2.5,2.5,0,0,0-2.535,2.781v.592h-4.655a5.875,5.875,0,0,1-.025-.652c0-4.172,2.562-6.894,7.712-6.894C461.312,472.021,463.979,474.446,463.979,478.146Z" transform="translate(-449.288 -472.021)" fill="#219abc"/>
  </g>
</svg>
