<svg xmlns="http://www.w3.org/2000/svg" width="23.996" height="24" viewBox="0 0 23.996 24">
  <g id="tools" transform="translate(0 0.007)">
    <path id="Path_157" data-name="Path 157" d="M0,1.492,1.492,0l4.6,3.282A1.492,1.492,0,0,1,6.713,4.5v.1A1.492,1.492,0,0,0,7.15,5.659l8.513,8.513,1.364-.455a1.492,1.492,0,0,1,1.526.361l5.006,5.006a1.492,1.492,0,0,1,0,2.109l-2.366,2.366a1.492,1.492,0,0,1-2.109,0l-5.006-5.006a1.492,1.492,0,0,1-.361-1.526l.454-1.363L5.658,7.15A1.492,1.492,0,0,0,4.6,6.713H4.5a1.492,1.492,0,0,1-1.214-.625Zm16.937,14.39a.747.747,0,0,0-1.056,1.056l4.475,4.475a.747.747,0,0,0,1.056-1.056Z" transform="translate(0 -0.002)" fill="#f69625" fill-rule="evenodd"/>
    <path id="Path_158" data-name="Path 158" d="M23.716,3.314a4.48,4.48,0,0,1-5.488,5.481L8.77,18.122A4.475,4.475,0,1,1,5.746,15.1L15.072,5.64A4.475,4.475,0,0,1,20.554.147L17.359,3.342,17.9,5.965l2.621.543,3.194-3.194ZM3.772,16.768l.705-.361.7.361.789.038.428.664.664.428.038.789.36.7-.361.7-.038.789L6.4,21.31l-.428.664-.789.038-.7.361-.7-.361-.789-.039-.428-.664-.664-.428-.038-.789-.361-.7.361-.7.038-.789.664-.428.428-.664.789-.038Z" transform="translate(-0.001 0)" fill="#f69625" fill-rule="evenodd"/>
  </g>
</svg>
